<?xml version="1.0" encoding="UTF-8"?>
<level>
  <owner>stolbitsa</owner>
  <repo>jingle-bells-2</repo>
  <version>v1.0.1</version>
  <next number="1" owner="stolbitsa" repo="jingle-bells-1"/>
  <readme>
    <ru>7a9a16a3a34c8a95ceca606b41451ab4acc89e4d741da9c8b77e8c8f012278a8</ru>
    <en>7da9e2de5fff3693968c494f7b8076e2a38b873181938afed50baa72b0d156a3</en>
  </readme>
  <license>b1b99f5538d1fd3702219bff50c665196dfa42f6ee755c37fe41a6178d6bc6e5</license>
  <exercise number="1">
    <scale>major</scale>
    <bpm>100</bpm>
    <lowestNote>85</lowestNote>
    <tonalities>6</tonalities>
    <video name="20-merry-christmas-viral_1.mp4" size="1858812" type="video/mp4" volume="1">ecbcd8ab18a88e0f4533c8537c3e5e49a694c880e426aa722179321ecee9ca80</video>
    <notes>
      <note number="1" values="3" ticks="31" durationTicks="36" ppq="96" velocity="0.843"/>
      <note number="2" values="3" ticks="79" durationTicks="35" ppq="96" velocity="0.739"/>
      <note number="3" values="3" ticks="128" durationTicks="81" ppq="96" velocity="0.719"/>
      <note number="4" values="3" ticks="222" durationTicks="24" ppq="96" velocity="0.719"/>
      <note number="5" values="3" ticks="258" durationTicks="29" ppq="96" velocity="0.719"/>
      <note number="6" values="3" ticks="301" durationTicks="95" ppq="96" velocity="0.719"/>
    </notes>
  </exercise>
  <exercise number="2">
    <scale>major</scale>
    <bpm>100</bpm>
    <lowestNote>85</lowestNote>
    <tonalities>6</tonalities>
    <video name="20-merry-christmas-viral_2.mp4" size="1785242" type="video/mp4" volume="1">1fc8f64ae05c1a8c061b6f033b47f4ee02bc57120438cddb40b44c5de7c02894</video>
    <notes>
      <note number="1" values="3" ticks="21" durationTicks="45" ppq="96" velocity="0.843"/>
      <note number="2" values="5" ticks="69" durationTicks="45" ppq="96" velocity="0.739"/>
      <note number="3" values="1" ticks="118" durationTicks="67" ppq="96" velocity="0.719"/>
      <note number="4" values="2" ticks="188" durationTicks="23" ppq="96" velocity="0.719"/>
      <note number="5" values="3" ticks="213" durationTicks="82" ppq="96" velocity="0.719"/>
    </notes>
  </exercise>
  <exercise number="3">
    <scale>major</scale>
    <bpm>100</bpm>
    <lowestNote>85</lowestNote>
    <tonalities>6</tonalities>
    <video name="20-merry-christmas-viral_3.mp4" size="1653606" type="video/mp4" volume="1">e9d14f6c5ef3fc5baf153bee5b210b4b7d1b8835b17f9913f6654b7d010ad190</video>
    <notes>
      <note number="1" values="4" ticks="49" durationTicks="36" ppq="96" velocity="0.843"/>
      <note number="2" values="4" ticks="97" durationTicks="35" ppq="96" velocity="0.739"/>
      <note number="3" values="4" ticks="146" durationTicks="53" ppq="96" velocity="0.719"/>
      <note number="4" values="4" ticks="217" durationTicks="15" ppq="96" velocity="0.719"/>
      <note number="5" values="4" ticks="241" durationTicks="34" ppq="96" velocity="0.719"/>
      <note number="6" values="3" ticks="289" durationTicks="34" ppq="96" velocity="0.719"/>
      <note number="7" values="3" ticks="338" durationTicks="44" ppq="96" velocity="0.719"/>
    </notes>
  </exercise>
  <exercise number="4">
    <scale>major</scale>
    <bpm>100</bpm>
    <lowestNote>85</lowestNote>
    <tonalities>6</tonalities>
    <video name="20-merry-christmas-viral_4.mp4" size="1845656" type="video/mp4" volume="1">e28c3d771dfc9ff15a36dbdc5db06fcea931c5fc2ae3f433b0fe86df24c08b57</video>
    <notes>
      <note number="1" values="3" ticks="15" durationTicks="36" ppq="96" velocity="0.843"/>
      <note number="2" values="3" ticks="63" durationTicks="40" ppq="96" velocity="0.739"/>
      <note number="3" values="2" ticks="110" durationTicks="36" ppq="96" velocity="0.719"/>
      <note number="4" values="2" ticks="159" durationTicks="39" ppq="96" velocity="0.719"/>
      <note number="5" values="3" ticks="206" durationTicks="45" ppq="96" velocity="0.719"/>
      <note number="6" values="2" ticks="255" durationTicks="95" ppq="96" velocity="0.719"/>
      <note number="7" values="5" ticks="350" durationTicks="95" ppq="96" velocity="0.719"/>
    </notes>
  </exercise>
  <exercise number="5">
    <scale>major</scale>
    <bpm>100</bpm>
    <lowestNote>85</lowestNote>
    <tonalities>6</tonalities>
    <video name="20-merry-christmas-viral_4.mp4" size="1845656" type="video/mp4" volume="1">e28c3d771dfc9ff15a36dbdc5db06fcea931c5fc2ae3f433b0fe86df24c08b57</video>
    <notes>
      <note number="1" values="3" ticks="153" durationTicks="36" ppq="96" velocity="0.843"/>
      <note number="2" values="3" ticks="201" durationTicks="35" ppq="96" velocity="0.732"/>
      <note number="3" values="3" ticks="250" durationTicks="81" ppq="96" velocity="0.717"/>
      <note number="4" values="3" ticks="344" durationTicks="24" ppq="96" velocity="0.717"/>
      <note number="5" values="3" ticks="380" durationTicks="29" ppq="96" velocity="0.717"/>
      <note number="6" values="3" ticks="423" durationTicks="95" ppq="96" velocity="0.717"/>
    </notes>
  </exercise>
  <exercise number="6">
    <scale>major</scale>
    <bpm>100</bpm>
    <lowestNote>85</lowestNote>
    <tonalities>6</tonalities>
    <video name="20-merry-christmas-viral_6.mp4" size="1828384" type="video/mp4" volume="1">e580c80a2b9f517cdbb6bc9fd819d5bac52718c44946222ea8ee6454a5fa2d02</video>
    <notes>
      <note number="1" values="3" ticks="57" durationTicks="36" ppq="96" velocity="0.843"/>
      <note number="2" values="5" ticks="105" durationTicks="35" ppq="96" velocity="0.732"/>
      <note number="3" values="1" ticks="154" durationTicks="27" ppq="96" velocity="0.717"/>
      <note number="4" values="2" ticks="197" durationTicks="35" ppq="96" velocity="0.717"/>
      <note number="5" values="3" ticks="239" durationTicks="82" ppq="96" velocity="0.717"/>
    </notes>
  </exercise>
  <exercise number="7">
    <scale>major</scale>
    <bpm>100</bpm>
    <lowestNote>85</lowestNote>
    <tonalities>6</tonalities>
    <video name="20-merry-christmas-viral_7.mp4" size="1693617" type="video/mp4" volume="1">4bebc8e8e9c1d95cac1879b322367cbcdbba0ee2b4fd9970c66f915b2a5bee5b</video>
    <notes>
      <note number="1" values="4" ticks="109" durationTicks="36" ppq="96" velocity="0.843"/>
      <note number="2" values="4" ticks="157" durationTicks="35" ppq="96" velocity="0.732"/>
      <note number="3" values="4" ticks="206" durationTicks="36" ppq="96" velocity="0.717"/>
      <note number="4" values="4" ticks="285" durationTicks="21" ppq="96" velocity="0.717"/>
      <note number="5" values="4" ticks="311" durationTicks="34" ppq="96" velocity="0.717"/>
      <note number="6" values="3" ticks="345" durationTicks="27" ppq="96" velocity="0.717"/>
      <note number="7" values="3" ticks="388" durationTicks="53" ppq="96" velocity="0.717"/>
    </notes>
  </exercise>
  <exercise number="8">
    <scale>major</scale>
    <bpm>100</bpm>
    <lowestNote>85</lowestNote>
    <tonalities>6</tonalities>
    <video name="20-merry-christmas-viral_8.mp4" size="1850021" type="video/mp4" volume="1">2ac0d541ed006f7b9bd3b62e50f10cdc6b070833911b9b1bfc0e1b195cd2f336</video>
    <notes>
      <note number="1" values="4" ticks="89" durationTicks="36" ppq="96" velocity="0.843"/>
      <note number="2" values="5" ticks="137" durationTicks="24" ppq="96" velocity="0.732"/>
      <note number="3" values="5" ticks="164" durationTicks="51" ppq="96" velocity="0.717"/>
      <note number="4" values="4" ticks="225" durationTicks="38" ppq="96" velocity="0.717"/>
      <note number="5" values="2" ticks="269" durationTicks="36" ppq="96" velocity="0.717"/>
      <note number="6" values="1" ticks="315" durationTicks="95" ppq="96" velocity="0.717"/>
    </notes>
  </exercise>
</level>
